<svg width="300" height="100" viewBox="0 0 300 100" fill="none" xmlns="http://www.w3.org/2000/svg">
<rect x="1.5" y="1.5" width="297" height="97" rx="3.5" stroke="#E3E7F1" stroke-width="3"/>
<g clip-path="url(#clip0_563_2677)">
<path d="M100.263 52.0073C100.186 43.9088 106.84 40.0179 107.14 39.8326C103.394 34.3281 97.5769 33.5715 95.5047 33.4866C90.5545 32.9771 85.8421 36.4203 83.3247 36.4203C80.8074 36.4203 76.9316 33.5561 72.8255 33.641C67.4225 33.7182 62.4415 36.7986 59.6555 41.6623C54.0529 51.436 58.228 65.9498 63.7002 73.8939C66.3787 77.7771 69.5561 82.1544 73.7465 81.9923C77.7835 81.8302 79.3031 79.3675 84.169 79.3675C89.0348 79.3675 90.4086 81.9923 94.6682 81.9151C99.0045 81.8302 101.752 77.9469 104.408 74.0483C107.462 69.532 108.728 65.1701 108.805 64.9385C108.705 64.8999 100.355 61.6806 100.263 52.0073Z" fill="black"/>
<path d="M92.2583 28.2215C94.484 25.5117 95.9806 21.752 95.5738 18C92.3734 18.1312 88.4976 20.1462 86.2028 22.856C84.1459 25.2492 82.3423 29.0784 82.8335 32.7532C86.387 33.0311 90.0402 30.9235 92.2583 28.2215ZM128.33 59.9667L124.646 71.1995H119.911L131.968 35.5016H137.494L149.597 71.1995H144.701L140.909 59.9667H128.33ZM139.965 56.3614L136.496 46.0859C135.706 43.7544 135.184 41.6391 134.654 39.5701H134.554C134.025 41.6854 133.449 43.8548 132.766 46.0318L129.297 56.3537L139.965 56.3614ZM153.189 53.9296C153.189 50.6485 153.089 47.9928 152.974 45.5609H157.134L157.349 49.9614H157.448C159.344 46.8347 162.345 44.9819 166.505 44.9819C172.668 44.9819 177.296 50.2239 177.296 58.0135C177.296 67.2314 171.716 71.7785 165.714 71.7785C162.345 71.7785 159.398 70.2963 157.871 67.7563H157.771V81.6835H153.189V53.9296ZM157.763 60.7619C157.763 61.4567 157.863 62.082 157.978 62.6688C158.822 65.8958 161.608 68.1269 164.931 68.1269C169.828 68.1269 172.675 64.1047 172.675 58.222C172.675 53.0803 169.989 48.6953 165.093 48.6953C161.938 48.6953 158.991 50.9727 158.085 54.47C157.924 55.049 157.771 55.7438 157.771 56.3768L157.763 60.7619ZM182.085 53.9296C182.085 50.6485 181.985 47.9928 181.87 45.5609H186.03L186.244 49.9614H186.344C188.24 46.8347 191.241 44.9819 195.401 44.9819C201.563 44.9819 206.191 50.2239 206.191 58.0135C206.191 67.2314 200.612 71.7785 194.61 71.7785C191.241 71.7785 188.294 70.2963 186.766 67.7563H186.667V81.6835H182.085V53.9296ZM186.667 60.7619C186.667 61.4567 186.766 62.082 186.881 62.6688C187.726 65.8958 190.512 68.1269 193.835 68.1269C198.731 68.1269 201.579 64.1047 201.579 58.222C201.579 53.0803 198.893 48.6953 193.996 48.6953C190.842 48.6953 187.895 50.9727 186.989 54.47C186.828 55.049 186.674 55.7438 186.674 56.3768L186.667 60.7619ZM210.988 33.5947H215.624V71.1918H210.988V33.5947ZM224.941 59.2256C225.041 65.5252 229.047 68.1269 233.675 68.1269C236.991 68.1269 238.994 67.5479 240.728 66.8068L241.519 70.1419C239.892 70.883 237.098 71.7322 233.046 71.7322C225.202 71.7322 220.513 66.5443 220.513 58.8087C220.513 51.0731 225.041 44.9819 232.462 44.9819C240.782 44.9819 242.992 52.3392 242.992 57.0562C242.992 58.0135 242.893 58.7469 242.831 59.2256H224.941ZM238.526 55.8905C238.579 52.9259 237.313 48.317 232.102 48.317C227.412 48.317 225.363 52.6634 224.995 55.8905H238.526Z" fill="black"/>
</g>
<defs>
<clipPath id="clip0_563_2677">
<rect width="186" height="64" fill="white" transform="translate(57 18)"/>
</clipPath>
</defs>
</svg>
