<svg xmlns="http://www.w3.org/2000/svg" width="30" height="30" viewBox="0 0 30 30" fill="none">
    <path d="M4.24275 5.66743C4.18192 5.93679 4.35098 6.20446 4.62034 6.26528L9.00982 7.25646C9.27918 7.31728 9.54685 7.14823 9.60767 6.87887C9.6685 6.60951 9.49944 6.34184 9.23008 6.28101L5.32832 5.39997L6.20936 1.49821C6.27019 1.22885 6.10113 0.96118 5.83177 0.900356C5.56241 0.839533 5.29475 1.00859 5.23392 1.27795L4.24275 5.66743ZM24.4061 9.22787C23.1168 7.29391 20.5836 4.79201 17.1408 3.53716C13.6712 2.27253 9.31581 2.29018 4.46347 5.35482L4.99747 6.20031C9.58853 3.30069 13.6203 3.31834 16.7984 4.47669C20.0032 5.64481 22.3782 7.98887 23.574 9.78257L24.4061 9.22787Z" fill="#00051E"/>
    <path d="M8.32743 27.9516C8.5894 27.8642 8.73098 27.5811 8.64366 27.3191L7.22063 23.05C7.13331 22.7881 6.85015 22.6465 6.58817 22.7338C6.3262 22.8211 6.18462 23.1043 6.27195 23.3663L7.53686 27.161L3.74213 28.4259C3.48015 28.5132 3.33857 28.7964 3.4259 29.0583C3.51322 29.3203 3.79638 29.4619 4.05835 29.3746L8.32743 27.9516ZM2.15854 9.18782C0.659411 11.4954 0.0638618 15.1479 0.843513 18.7153C1.62755 22.3027 3.81387 25.8585 7.94571 27.9244L8.39292 27.03C4.57242 25.1197 2.55038 21.8415 1.82045 18.5017C1.08614 15.1418 1.67101 11.7739 2.99712 9.73259L2.15854 9.18782Z" fill="#00051E"/>
    <path d="M24.8196 12.1147C24.5702 11.9963 24.2719 12.1025 24.1535 12.352L22.2238 16.4172C22.1054 16.6667 22.2116 16.9649 22.4611 17.0833C22.7106 17.2018 23.0088 17.0955 23.1272 16.8461L24.8425 13.2325L28.456 14.9478C28.7055 15.0662 29.0037 14.96 29.1221 14.7105C29.2406 14.4611 29.1343 14.1628 28.8849 14.0444L24.8196 12.1147ZM11.9962 28.5634C13.3438 29.0951 15.0909 29.0212 16.8472 28.4898C18.6145 27.9552 20.4485 26.9415 21.9993 25.5134C25.1155 22.6439 27.1004 18.081 25.0762 12.3986L24.1342 12.7342C26.0048 17.9854 24.1871 22.1393 21.3219 24.7778C19.8821 26.1037 18.1807 27.0417 16.5577 27.5327C14.9238 28.0269 13.4257 28.0524 12.3632 27.6332L11.9962 28.5634Z" fill="#00051E"/>
</svg>