<svg xmlns="http://www.w3.org/2000/svg" width="15" height="15" viewBox="0 0 15 15" fill="none">
                                    <g clip-path="url(#clip0_499_1997)">
                                        <path d="M13.5332 7.35095C13.5876 7.35095 13.6398 7.32935 13.6782 7.29089C13.7167 7.25243 13.7383 7.20026 13.7383 7.14587V6.09119C13.7383 6.0368 13.7167 5.98463 13.6782 5.94617C13.6398 5.90771 13.5876 5.88611 13.5332 5.88611C13.4788 5.88611 13.4267 5.90771 13.3882 5.94617C13.3497 5.98463 13.3281 6.0368 13.3281 6.09119V7.14587C13.3281 7.20026 13.3497 7.25243 13.3882 7.29089C13.4267 7.32935 13.4788 7.35095 13.5332 7.35095Z" fill="black"/>
                                        <path d="M13.5332 1.51406H11.9805V0.761719C11.9805 0.707329 11.9589 0.655166 11.9204 0.616707C11.8819 0.578247 11.8298 0.556641 11.7754 0.556641H11.0723C11.0179 0.556641 10.9657 0.578247 10.9273 0.616707C10.8888 0.655166 10.8672 0.707329 10.8672 0.761719V1.51406H9.36332V0.761719C9.36332 0.707329 9.34171 0.655166 9.30325 0.616707C9.26479 0.578247 9.21263 0.556641 9.15824 0.556641H8.45512C8.40073 0.556641 8.34857 0.578247 8.31011 0.616707C8.27165 0.655166 8.25004 0.707329 8.25004 0.761719V1.51406H6.74605V0.761719C6.74605 0.707329 6.72445 0.655166 6.68599 0.616707C6.64753 0.578247 6.59537 0.556641 6.54098 0.556641H5.83785C5.78347 0.556672 5.73133 0.578288 5.69287 0.616741C5.65442 0.655194 5.6328 0.707338 5.63277 0.761719V1.51406H4.12891V0.761719C4.12888 0.707338 4.10726 0.655194 4.06881 0.616741C4.03035 0.578288 3.97821 0.556672 3.92383 0.556641H3.2207C3.16632 0.556672 3.11418 0.578288 3.07573 0.616741C3.03727 0.655194 3.01566 0.707338 3.01562 0.761719V1.51406H1.46289C1.22211 1.51434 0.991263 1.61012 0.821002 1.78038C0.650742 1.95064 0.554967 2.18148 0.554688 2.42227V13.5352C0.554967 13.7759 0.650742 14.0068 0.821002 14.177C0.991263 14.3473 1.22211 14.4431 1.46289 14.4434H13.5332C13.774 14.4431 14.0048 14.3473 14.1751 14.177C14.3454 14.0068 14.4411 13.7759 14.4414 13.5352V2.42227C14.4411 2.18148 14.3454 1.95064 14.1751 1.78038C14.0048 1.61012 13.774 1.51434 13.5332 1.51406ZM0.964844 4.57969H14.0312V12.0014C14.0311 12.1334 13.9786 12.26 13.8852 12.3534C13.7918 12.4468 13.6652 12.4993 13.5332 12.4995H1.46289C1.33085 12.4993 1.20426 12.4468 1.11089 12.3534C1.01752 12.26 0.964999 12.1334 0.964844 12.0014V4.57969ZM11.2773 0.966797H11.5703V2.47066H11.2773V0.966797ZM8.95316 0.966797V2.47066H8.6602V1.72266C8.6602 1.72148 8.6602 1.72043 8.6602 1.71926C8.6602 1.71809 8.6602 1.71703 8.6602 1.71586V0.966797H8.95316ZM6.04293 0.966797H6.3359V1.71516V1.71914C6.3359 1.71914 6.3359 1.72172 6.3359 1.72313V2.47066H6.04293V0.966797ZM3.42578 0.966797H3.71875V2.47066H3.42578V0.966797ZM0.964844 2.42227C0.964999 2.29022 1.01752 2.16363 1.11089 2.07026C1.20426 1.9769 1.33085 1.92437 1.46289 1.92422H3.01562V2.67574C3.01562 2.73013 3.03723 2.78229 3.07569 2.82075C3.11415 2.85921 3.16631 2.88082 3.2207 2.88082H3.92383C3.97822 2.88082 4.03038 2.85921 4.06884 2.82075C4.1073 2.78229 4.12891 2.73013 4.12891 2.67574V1.92422H5.63277V2.67574C5.63277 2.73013 5.65438 2.78229 5.69284 2.82075C5.7313 2.85921 5.78346 2.88082 5.83785 2.88082H6.54098C6.56791 2.88084 6.59459 2.87554 6.61947 2.86524C6.64436 2.85494 6.66698 2.83983 6.68602 2.82079C6.70507 2.80174 6.72017 2.77913 6.73048 2.75424C6.74078 2.72935 6.74607 2.70268 6.74605 2.67574V1.92422H8.25004V2.67574C8.25002 2.70268 8.25532 2.72935 8.26562 2.75424C8.27592 2.77913 8.29102 2.80174 8.31007 2.82079C8.32912 2.83983 8.35173 2.85494 8.37662 2.86524C8.40151 2.87554 8.42818 2.88084 8.45512 2.88082H9.15824C9.18518 2.88084 9.21185 2.87554 9.23674 2.86524C9.26163 2.85494 9.28424 2.83983 9.30329 2.82079C9.32234 2.80174 9.33744 2.77913 9.34774 2.75424C9.35804 2.72935 9.36334 2.70268 9.36332 2.67574V1.92422H10.8672V2.67574C10.8672 2.70268 10.8725 2.72935 10.8828 2.75424C10.8931 2.77913 10.9082 2.80174 10.9272 2.82079C10.9463 2.83983 10.9689 2.85494 10.9938 2.86524C11.0187 2.87554 11.0453 2.88084 11.0723 2.88082H11.7754C11.8023 2.88084 11.829 2.87554 11.8539 2.86524C11.8788 2.85494 11.9014 2.83983 11.9204 2.82079C11.9395 2.80174 11.9546 2.77913 11.9649 2.75424C11.9752 2.72935 11.9805 2.70268 11.9805 2.67574V1.92422H13.5332C13.6652 1.92437 13.7918 1.9769 13.8852 2.07026C13.9786 2.16363 14.0311 2.29022 14.0312 2.42227V4.16953H0.964844V2.42227ZM13.5332 14.0332H1.46289C1.33085 14.033 1.20426 13.9805 1.11089 13.8872C1.01752 13.7938 0.964999 13.6672 0.964844 13.5352V12.76C1.11258 12.8576 1.28579 12.9097 1.46289 12.9096H13.5332C13.7103 12.9097 13.8835 12.8576 14.0312 12.76V13.5352C14.0311 13.6672 13.9786 13.7938 13.8852 13.8872C13.7918 13.9805 13.6652 14.033 13.5332 14.0332Z"
                                              fill="black"/>
                                        <path d="M2.5957 7.15857H3.65039C3.70478 7.15857 3.75694 7.13696 3.7954 7.0985C3.83386 7.06004 3.85547 7.00788 3.85547 6.95349V5.8988C3.85544 5.84442 3.83382 5.79228 3.79537 5.75383C3.75692 5.71537 3.70477 5.69376 3.65039 5.69373H2.5957C2.54131 5.69373 2.48915 5.71533 2.45069 5.75379C2.41223 5.79225 2.39063 5.84441 2.39063 5.8988V6.95349C2.39061 6.98043 2.3959 7.0071 2.4062 7.03199C2.41651 7.05688 2.43161 7.07949 2.45066 7.09854C2.4697 7.11758 2.49232 7.13269 2.5172 7.14299C2.54209 7.15329 2.56877 7.15858 2.5957 7.15857ZM2.80078 6.10388H3.44531V6.74841H2.80078V6.10388Z" fill="black"/>
                                        <path d="M4.7832 7.15857H5.83789C5.86483 7.15858 5.8915 7.15329 5.91639 7.14299C5.94128 7.13269 5.96389 7.11758 5.98294 7.09854C6.00198 7.07949 6.01709 7.05688 6.02739 7.03199C6.03769 7.0071 6.04298 6.98043 6.04297 6.95349V5.8988C6.04297 5.84441 6.02136 5.79225 5.9829 5.75379C5.94444 5.71533 5.89228 5.69373 5.83789 5.69373H4.7832C4.72882 5.69376 4.67668 5.71537 4.63823 5.75383C4.59977 5.79228 4.57816 5.84442 4.57812 5.8988V6.95349C4.57812 7.00788 4.59973 7.06004 4.63819 7.0985C4.67665 7.13696 4.72881 7.15857 4.7832 7.15857ZM4.98828 6.10388H5.63281V6.74841H4.98828V6.10388Z" fill="black"/>
                                        <path d="M6.9707 7.15857H8.02539C8.05233 7.15858 8.079 7.15329 8.10389 7.14299C8.12878 7.13269 8.15139 7.11758 8.17044 7.09854C8.18948 7.07949 8.20459 7.05688 8.21489 7.03199C8.22519 7.0071 8.23048 6.98043 8.23047 6.95349V5.8988C8.23047 5.84441 8.20886 5.79225 8.1704 5.75379C8.13194 5.71533 8.07978 5.69373 8.02539 5.69373H6.9707C6.91632 5.69376 6.86418 5.71537 6.82573 5.75383C6.78727 5.79228 6.76566 5.84442 6.76562 5.8988V6.95349C6.76563 7.00788 6.78723 7.06004 6.82569 7.0985C6.86415 7.13696 6.91631 7.15857 6.9707 7.15857ZM7.17578 6.10388H7.82031V6.74841H7.17578V6.10388Z" fill="black"/>
                                        <path d="M9.1582 7.15857H10.2129C10.2398 7.15858 10.2665 7.15329 10.2914 7.14299C10.3163 7.13269 10.3389 7.11758 10.3579 7.09854C10.377 7.07949 10.3921 7.05688 10.4024 7.03199C10.4127 7.0071 10.418 6.98043 10.418 6.95349V5.8988C10.418 5.84441 10.3964 5.79225 10.3579 5.75379C10.3194 5.71533 10.2673 5.69373 10.2129 5.69373H9.1582C9.10381 5.69373 9.05165 5.71533 9.01319 5.75379C8.97473 5.79225 8.95313 5.84441 8.95313 5.8988V6.95349C8.95311 6.98043 8.9584 7.0071 8.9687 7.03199C8.979 7.05688 8.99411 7.07949 9.01316 7.09854C9.0322 7.11758 9.05482 7.13269 9.0797 7.14299C9.10459 7.15329 9.13127 7.15858 9.1582 7.15857ZM9.36328 6.10388H10.0078V6.74841H9.36328V6.10388Z" fill="black"/>
                                        <path d="M11.3457 7.15857H12.4004C12.4273 7.15858 12.454 7.15329 12.4789 7.14299C12.5038 7.13269 12.5264 7.11758 12.5454 7.09854C12.5645 7.07949 12.5796 7.05688 12.5899 7.03199C12.6002 7.0071 12.6055 6.98043 12.6055 6.95349V5.8988C12.6055 5.84441 12.5839 5.79225 12.5454 5.75379C12.5069 5.71533 12.4548 5.69373 12.4004 5.69373H11.3457C11.2913 5.69373 11.2392 5.71533 11.2007 5.75379C11.1622 5.79225 11.1406 5.84441 11.1406 5.8988V6.95349C11.1406 6.98043 11.1459 7.0071 11.1562 7.03199C11.1665 7.05688 11.1816 7.07949 11.2007 7.09854C11.2197 7.11758 11.2423 7.13269 11.2672 7.14299C11.2921 7.15329 11.3188 7.15858 11.3457 7.15857ZM11.5508 6.10388H12.1953V6.74841H11.5508V6.10388Z" fill="black"/>
                                        <path d="M2.5957 9.27222H3.65039C3.70477 9.27219 3.75692 9.25057 3.79537 9.21212C3.83382 9.17366 3.85544 9.12152 3.85547 9.06714V8.01245C3.85547 7.95806 3.83386 7.9059 3.7954 7.86744C3.75694 7.82898 3.70478 7.80737 3.65039 7.80737H2.5957C2.56877 7.80736 2.54209 7.81265 2.5172 7.82295C2.49232 7.83325 2.4697 7.84836 2.45066 7.8674C2.43161 7.88645 2.41651 7.90906 2.4062 7.93395C2.3959 7.95884 2.39061 7.98552 2.39063 8.01245V9.06714C2.39063 9.12153 2.41223 9.17369 2.45069 9.21215C2.48915 9.25061 2.54131 9.27222 2.5957 9.27222ZM2.80078 8.21753H3.44531V8.86206H2.80078V8.21753Z" fill="black"/>
                                        <path d="M4.7832 9.27222H5.83789C5.89228 9.27222 5.94444 9.25061 5.9829 9.21215C6.02136 9.17369 6.04297 9.12153 6.04297 9.06714V8.01245C6.04298 7.98552 6.03769 7.95884 6.02739 7.93395C6.01709 7.90906 6.00198 7.88645 5.98294 7.8674C5.96389 7.84836 5.94128 7.83325 5.91639 7.82295C5.8915 7.81265 5.86483 7.80736 5.83789 7.80737H4.7832C4.72881 7.80737 4.67665 7.82898 4.63819 7.86744C4.59973 7.9059 4.57812 7.95806 4.57812 8.01245V9.06714C4.57816 9.12152 4.59977 9.17366 4.63823 9.21212C4.67668 9.25057 4.72882 9.27219 4.7832 9.27222ZM4.98828 8.21753H5.63281V8.86206H4.98828V8.21753Z" fill="black"/>
                                        <path d="M6.9707 9.27222H8.02539C8.07978 9.27222 8.13194 9.25061 8.1704 9.21215C8.20886 9.17369 8.23047 9.12153 8.23047 9.06714V8.01245C8.23048 7.98552 8.22519 7.95884 8.21489 7.93395C8.20459 7.90906 8.18948 7.88645 8.17044 7.8674C8.15139 7.84836 8.12878 7.83325 8.10389 7.82295C8.079 7.81265 8.05233 7.80736 8.02539 7.80737H6.9707C6.91631 7.80737 6.86415 7.82898 6.82569 7.86744C6.78723 7.9059 6.76562 7.95806 6.76562 8.01245V9.06714C6.76566 9.12152 6.78727 9.17366 6.82573 9.21212C6.86418 9.25057 6.91632 9.27219 6.9707 9.27222ZM7.17578 8.21753H7.82031V8.86206H7.17578V8.21753Z" fill="black"/>
                                        <path d="M9.1582 9.27222H10.2129C10.2673 9.27222 10.3194 9.25061 10.3579 9.21215C10.3964 9.17369 10.418 9.12153 10.418 9.06714V8.01245C10.418 7.98552 10.4127 7.95884 10.4024 7.93395C10.3921 7.90906 10.377 7.88645 10.3579 7.8674C10.3389 7.84836 10.3163 7.83325 10.2914 7.82295C10.2665 7.81265 10.2398 7.80736 10.2129 7.80737H9.1582C9.13127 7.80736 9.10459 7.81265 9.0797 7.82295C9.05482 7.83325 9.0322 7.84836 9.01316 7.8674C8.99411 7.88645 8.979 7.90906 8.9687 7.93395C8.9584 7.95884 8.95311 7.98552 8.95313 8.01245V9.06714C8.95313 9.12153 8.97473 9.17369 9.01319 9.21215C9.05165 9.25061 9.10381 9.27222 9.1582 9.27222ZM9.36328 8.21753H10.0078V8.86206H9.36328V8.21753Z" fill="black"/>
                                        <path d="M11.3457 9.27222H12.4004C12.4548 9.27222 12.5069 9.25061 12.5454 9.21215C12.5839 9.17369 12.6055 9.12153 12.6055 9.06714V8.01245C12.6055 7.98552 12.6002 7.95884 12.5899 7.93395C12.5796 7.90906 12.5645 7.88645 12.5454 7.8674C12.5264 7.84836 12.5038 7.83325 12.4789 7.82295C12.454 7.81265 12.4273 7.80736 12.4004 7.80737H11.3457C11.3188 7.80736 11.2921 7.81265 11.2672 7.82295C11.2423 7.83325 11.2197 7.84836 11.2007 7.8674C11.1816 7.88645 11.1665 7.90906 11.1562 7.93395C11.1459 7.95884 11.1406 7.98552 11.1406 8.01245V9.06714C11.1406 9.12153 11.1622 9.17369 11.2007 9.21215C11.2392 9.25061 11.2913 9.27222 11.3457 9.27222ZM11.5508 8.21753H12.1953V8.86206H11.5508V8.21753Z" fill="black"/>
                                        <path d="M2.5957 11.3859H3.65039C3.70477 11.3858 3.75692 11.3642 3.79537 11.3258C3.83382 11.2873 3.85544 11.2352 3.85547 11.1808V10.1261C3.85547 10.0717 3.83386 10.0195 3.7954 9.98109C3.75694 9.94263 3.70478 9.92102 3.65039 9.92102H2.5957C2.56877 9.92101 2.54209 9.9263 2.5172 9.9366C2.49232 9.9469 2.4697 9.96201 2.45066 9.98105C2.43161 10.0001 2.41651 10.0227 2.4062 10.0476C2.3959 10.0725 2.39061 10.0992 2.39063 10.1261V11.1808C2.39063 11.2352 2.41223 11.2873 2.45069 11.3258C2.48915 11.3643 2.54131 11.3859 2.5957 11.3859ZM2.80078 10.3312H3.44531V10.9757H2.80078V10.3312Z" fill="black"/>
                                        <path d="M4.7832 11.3859H5.83789C5.89228 11.3859 5.94444 11.3643 5.9829 11.3258C6.02136 11.2873 6.04297 11.2352 6.04297 11.1808V10.1261C6.04298 10.0992 6.03769 10.0725 6.02739 10.0476C6.01709 10.0227 6.00198 10.0001 5.98294 9.98105C5.96389 9.96201 5.94128 9.9469 5.91639 9.9366C5.8915 9.9263 5.86483 9.92101 5.83789 9.92102H4.7832C4.72881 9.92102 4.67665 9.94263 4.63819 9.98109C4.59973 10.0195 4.57812 10.0717 4.57812 10.1261V11.1808C4.57816 11.2352 4.59977 11.2873 4.63823 11.3258C4.67668 11.3642 4.72882 11.3858 4.7832 11.3859ZM4.98828 10.3312H5.63281V10.9757H4.98828V10.3312Z" fill="black"/>
                                        <path d="M6.9707 11.3859H8.02539C8.07978 11.3859 8.13194 11.3643 8.1704 11.3258C8.20886 11.2873 8.23047 11.2352 8.23047 11.1808V10.1261C8.23048 10.0992 8.22519 10.0725 8.21489 10.0476C8.20459 10.0227 8.18948 10.0001 8.17044 9.98105C8.15139 9.96201 8.12878 9.9469 8.10389 9.9366C8.079 9.9263 8.05233 9.92101 8.02539 9.92102H6.9707C6.91631 9.92102 6.86415 9.94263 6.82569 9.98109C6.78723 10.0195 6.76562 10.0717 6.76562 10.1261V11.1808C6.76566 11.2352 6.78727 11.2873 6.82573 11.3258C6.86418 11.3642 6.91632 11.3858 6.9707 11.3859ZM7.17578 10.3312H7.82031V10.9757H7.17578V10.3312Z" fill="black"/>
                                        <path d="M9.1582 11.3859H10.2129C10.2673 11.3859 10.3194 11.3643 10.3579 11.3258C10.3964 11.2873 10.418 11.2352 10.418 11.1808V10.1261C10.418 10.0992 10.4127 10.0725 10.4024 10.0476C10.3921 10.0227 10.377 10.0001 10.3579 9.98105C10.3389 9.96201 10.3163 9.9469 10.2914 9.9366C10.2665 9.9263 10.2398 9.92101 10.2129 9.92102H9.1582C9.13127 9.92101 9.10459 9.9263 9.0797 9.9366C9.05482 9.9469 9.0322 9.96201 9.01316 9.98105C8.99411 10.0001 8.979 10.0227 8.9687 10.0476C8.9584 10.0725 8.95311 10.0992 8.95313 10.1261V11.1808C8.95313 11.2352 8.97473 11.2873 9.01319 11.3258C9.05165 11.3643 9.10381 11.3859 9.1582 11.3859ZM9.36328 10.3312H10.0078V10.9757H9.36328V10.3312Z" fill="black"/>
                                        <path d="M11.3457 11.3859H12.4004C12.4548 11.3859 12.5069 11.3643 12.5454 11.3258C12.5839 11.2873 12.6055 11.2352 12.6055 11.1808V10.1261C12.6055 10.0992 12.6002 10.0725 12.5899 10.0476C12.5796 10.0227 12.5645 10.0001 12.5454 9.98105C12.5264 9.96201 12.5038 9.9469 12.4789 9.9366C12.454 9.9263 12.4273 9.92101 12.4004 9.92102H11.3457C11.3188 9.92101 11.2921 9.9263 11.2672 9.9366C11.2423 9.9469 11.2197 9.96201 11.2007 9.98105C11.1816 10.0001 11.1665 10.0227 11.1562 10.0476C11.1459 10.0725 11.1406 10.0992 11.1406 10.1261V11.1808C11.1406 11.2352 11.1622 11.2873 11.2007 11.3258C11.2392 11.3643 11.2913 11.3859 11.3457 11.3859ZM11.5508 10.3312H12.1953V10.9757H11.5508V10.3312Z" fill="black"/>
                                    </g>
                                    <defs>
                                        <clipPath id="clip0_499_1997">
                                            <rect width="15" height="15" fill="white"/>
                                        </clipPath>
                                    </defs>
                                </svg>