<svg xmlns="http://www.w3.org/2000/svg" width="34" height="34" viewBox="0 0 34 34" fill="none">
    <path d="M29.7503 29.75L23.5977 23.5975M23.5977 23.5975C24.6501 22.545 25.485 21.2956 26.0545 19.9206C26.6241 18.5455 26.9172 17.0717 26.9172 15.5834C26.9172 14.095 26.6241 12.6212 26.0545 11.2462C25.485 9.87113 24.6501 8.62172 23.5977 7.5693C22.5453 6.51687 21.2959 5.68204 19.9208 5.11248C18.5458 4.54291 17.072 4.24976 15.5836 4.24976C14.0953 4.24976 12.6215 4.54291 11.2464 5.11248C9.87138 5.68204 8.62197 6.51687 7.56954 7.5693C5.44407 9.69476 4.25 12.5775 4.25 15.5834C4.25 18.5892 5.44407 21.472 7.56954 23.5975C9.69501 25.7229 12.5778 26.917 15.5836 26.917C18.5895 26.917 21.4722 25.7229 23.5977 23.5975Z" stroke="white" stroke-width="2" stroke-linecap="round" stroke-linejoin="round"/>
</svg>